<svg xmlns="http://www.w3.org/2000/svg" width="308.3" height="72.667" viewBox="0 0 308.3 72.667">
    <g id="ic_logo" transform="translate(-45.2 -143.6)">
      <g id="linhas" transform="translate(-1594.786 2804.286)">
        <rect id="Retângulo_11" data-name="Retângulo 11" width="35.143" height="6.287" rx="2" transform="translate(1878 -2659)" fill="#FFF"/>
        <rect id="Retângulo_14" data-name="Retângulo 14" width="70.286" height="6.287" rx="2" transform="translate(1878 -2612.573)" fill="#FFF"/>
        <rect id="Retângulo_13" data-name="Retângulo 13" width="70.286" height="6.287" rx="2" transform="translate(1878 -2635.786)" fill="#FFF"/>
      </g>
      <path id="ic_logo-2" data-name="ic_logo" d="M20.267-6.4a1.032,1.032,0,0,0,.307.76,1.032,1.032,0,0,0,.76.307H42.667a1.032,1.032,0,0,0,.76-.307,1.032,1.032,0,0,0,.307-.76V-20.267a1.032,1.032,0,0,1,.307-.76,1.032,1.032,0,0,1,.76-.307h4.267a1.032,1.032,0,0,1,.76.307,1.032,1.032,0,0,1,.307.76v19.2a1.032,1.032,0,0,1-.307.76,1.032,1.032,0,0,1-.76.307H4.267a1.032,1.032,0,0,1-.76-.307,1.032,1.032,0,0,1-.307-.76v-3.2a1.032,1.032,0,0,1,.307-.76,1.032,1.032,0,0,1,.76-.307H12.8a1.032,1.032,0,0,0,.76-.307,1.032,1.032,0,0,0,.307-.76V-46.933a1.032,1.032,0,0,0-.307-.76A1.032,1.032,0,0,0,12.8-48H4.267a1.032,1.032,0,0,1-.76-.307,1.032,1.032,0,0,1-.307-.76v-3.2a1.032,1.032,0,0,1,.307-.76,1.032,1.032,0,0,1,.76-.307h44.8a1.032,1.032,0,0,1,.76.307,1.032,1.032,0,0,1,.307.76v19.2a1.032,1.032,0,0,1-.307.76,1.032,1.032,0,0,1-.76.307H44.8a1.032,1.032,0,0,1-.76-.307,1.032,1.032,0,0,1-.307-.76V-46.933a1.032,1.032,0,0,0-.307-.76,1.032,1.032,0,0,0-.76-.307H21.333a1.032,1.032,0,0,0-.76.307,1.032,1.032,0,0,0-.307.76V-30.4a1.032,1.032,0,0,0,.307.76,1.032,1.032,0,0,0,.76.307H32a1.032,1.032,0,0,1,.76.307,1.032,1.032,0,0,1,.307.76v3.2a1.032,1.032,0,0,1-.307.76A1.032,1.032,0,0,1,32-24H21.333a1.032,1.032,0,0,0-.76.307,1.032,1.032,0,0,0-.307.76ZM60.8,0a1.032,1.032,0,0,1-.76-.307,1.032,1.032,0,0,1-.307-.76v-3.2a1.032,1.032,0,0,1,.307-.76,1.032,1.032,0,0,1,.76-.307h8.533a1.032,1.032,0,0,0,.76-.307A1.032,1.032,0,0,0,70.4-6.4V-30.933a1.032,1.032,0,0,0-.307-.76,1.032,1.032,0,0,0-.76-.307H60.8a1.032,1.032,0,0,1-.76-.307,1.032,1.032,0,0,1-.307-.76v-3.2a1.032,1.032,0,0,1,.307-.76,1.032,1.032,0,0,1,.76-.307H75.733a1.032,1.032,0,0,1,.76.307,1.032,1.032,0,0,1,.307.76V-6.4a1.032,1.032,0,0,0,.307.76,1.032,1.032,0,0,0,.76.307H86.4a1.032,1.032,0,0,1,.76.307,1.032,1.032,0,0,1,.307.76v3.2a1.032,1.032,0,0,1-.307.76A1.032,1.032,0,0,1,86.4,0Zm6.4-49.067a5.091,5.091,0,0,1,.427-2.067,5.48,5.48,0,0,1,1.147-1.693,5.48,5.48,0,0,1,1.693-1.147,5.091,5.091,0,0,1,2.067-.427,5.091,5.091,0,0,1,2.067.427,5.48,5.48,0,0,1,1.693,1.147,5.48,5.48,0,0,1,1.147,1.693,5.091,5.091,0,0,1,.427,2.067A5.091,5.091,0,0,1,77.44-47a5.48,5.48,0,0,1-1.147,1.693A5.48,5.48,0,0,1,74.6-44.16a5.091,5.091,0,0,1-2.067.427,5.091,5.091,0,0,1-2.067-.427,5.48,5.48,0,0,1-1.693-1.147A5.48,5.48,0,0,1,67.627-47,5.091,5.091,0,0,1,67.2-49.067Zm41.253,16.24a10.68,10.68,0,0,0-3.547.587,9,9,0,0,0-2.947,1.68,8.052,8.052,0,0,0-2.013,2.653,8.084,8.084,0,0,0-.747,3.533,8.278,8.278,0,0,0,.747,3.613,7.635,7.635,0,0,0,2.013,2.613,8.827,8.827,0,0,0,2.947,1.6,11.391,11.391,0,0,0,3.547.547,11.73,11.73,0,0,0,3.6-.547,9.241,9.241,0,0,0,3.013-1.6,7.562,7.562,0,0,0,2.067-2.613,8.155,8.155,0,0,0,.76-3.613,7.9,7.9,0,0,0-.76-3.507,7.966,7.966,0,0,0-2.067-2.653,9.618,9.618,0,0,0-3.013-1.693A10.775,10.775,0,0,0,108.453-32.827ZM103.467,0a5.8,5.8,0,0,0-2.173.32,4.644,4.644,0,0,0-1.053.56,8.78,8.78,0,0,0-1.893,2.373A6,6,0,0,0,97.6,6.187,5.221,5.221,0,0,0,98.547,9.4a6.733,6.733,0,0,0,2.52,2.027,12.554,12.554,0,0,0,3.587,1.067,27.506,27.506,0,0,0,4.147.307,28.331,28.331,0,0,0,5.56-.52,17.988,17.988,0,0,0,4.52-1.48,9,9,0,0,0,3.04-2.347,4.837,4.837,0,0,0,1.12-3.12,5.331,5.331,0,0,0-.373-1.947,4.6,4.6,0,0,0-1.173-1.707,6.035,6.035,0,0,0-2.08-1.213A8.974,8.974,0,0,0,116.347,0ZM92.8-24.373a13.128,13.128,0,0,1,1.147-5.453,13.508,13.508,0,0,1,3.227-4.453,15.421,15.421,0,0,1,4.973-3.013,17.743,17.743,0,0,1,6.387-1.107,18.5,18.5,0,0,1,3.2.267,18.805,18.805,0,0,1,2.907.747q.16.053.36.107a1.822,1.822,0,0,0,.467.053,2.153,2.153,0,0,0,.68-.12,1.938,1.938,0,0,0,.733-.493l6.667-6.64a1.054,1.054,0,0,1,.773-.32.939.939,0,0,1,.72.32l2.64,2.64a.939.939,0,0,1,.32.72,1.054,1.054,0,0,1-.32.773L122-34.64a2.677,2.677,0,0,0-.533.707,1.454,1.454,0,0,0-.16.627,1.271,1.271,0,0,0,.133.6,2.382,2.382,0,0,0,.267.413,12.677,12.677,0,0,1,1.907,3.693,13.608,13.608,0,0,1,.653,4.227,13.4,13.4,0,0,1-1.12,5.453,13.355,13.355,0,0,1-3.173,4.453,14.9,14.9,0,0,1-4.96,3,18.286,18.286,0,0,1-6.48,1.093,18.59,18.59,0,0,1-4.6-.547,17.051,17.051,0,0,1-3.96-1.533,1.956,1.956,0,0,0-.88-.267,1.659,1.659,0,0,0-1.04.48,4.559,4.559,0,0,0-1,1.227,3.343,3.343,0,0,0-.387,1.653,3.569,3.569,0,0,0,.44,1.84,3.313,3.313,0,0,0,1.227,1.2,5.842,5.842,0,0,0,1.827.653,11.863,11.863,0,0,0,2.24.2h13.253a17.4,17.4,0,0,1,6.08.947,12.206,12.206,0,0,1,4.16,2.48,9.678,9.678,0,0,1,2.4,3.467,10.441,10.441,0,0,1,.773,3.907,10.014,10.014,0,0,1-1.56,5.56,12.658,12.658,0,0,1-4.387,4.053,22.98,22.98,0,0,1-6.747,2.48,41.432,41.432,0,0,1-8.667.84,25.881,25.881,0,0,1-5.4-.507,18.3,18.3,0,0,1-4.147-1.373,11.87,11.87,0,0,1-3-2.013,11.458,11.458,0,0,1-1.987-2.44,9.658,9.658,0,0,1-1.107-2.64,10.912,10.912,0,0,1-.333-2.627,12.742,12.742,0,0,1,.12-1.693,10.624,10.624,0,0,1,.413-1.813,11.129,11.129,0,0,1,.773-1.827,10.825,10.825,0,0,1,1.173-1.76,1.475,1.475,0,0,0,.427-.88q0-.4-.613-.827a7.625,7.625,0,0,1-2.52-2.853,7.827,7.827,0,0,1-.84-3.547,7.975,7.975,0,0,1,.28-2.133,8.1,8.1,0,0,1,.787-1.893,10.193,10.193,0,0,1,1.173-1.64,12.6,12.6,0,0,1,1.44-1.4,3.877,3.877,0,0,0,.507-.493.765.765,0,0,0,.16-.493,2.171,2.171,0,0,0-.347-.96A12.962,12.962,0,0,1,92.8-24.373Zm55.467-9.787a1.494,1.494,0,0,0,.2.88.6.6,0,0,0,.493.267.947.947,0,0,0,.427-.107,1.2,1.2,0,0,0,.4-.347A12.232,12.232,0,0,1,154.4-37.12a14.525,14.525,0,0,1,6.16-1.28,17.511,17.511,0,0,1,3.28.32,13.87,13.87,0,0,1,3.28,1.067,13.165,13.165,0,0,1,3.013,1.96,12.137,12.137,0,0,1,2.48,2.987,15.813,15.813,0,0,1,1.693,4.173,21.818,21.818,0,0,1,.627,5.493v16a1,1,0,0,0,.32.773,1.07,1.07,0,0,0,.747.293h8.533a1.032,1.032,0,0,1,.76.307,1.032,1.032,0,0,1,.307.76v3.2a1.032,1.032,0,0,1-.307.76,1.032,1.032,0,0,1-.76.307H169.6a1.032,1.032,0,0,1-.76-.307,1.032,1.032,0,0,1-.307-.76V-22.933a12.8,12.8,0,0,0-.6-4.013,8.753,8.753,0,0,0-1.747-3.12,7.965,7.965,0,0,0-2.773-2.013,8.933,8.933,0,0,0-3.653-.72,10.17,10.17,0,0,0-4.613,1.053,11.014,11.014,0,0,0-3.64,2.933,13.829,13.829,0,0,0-2.387,4.48,18.077,18.077,0,0,0-.853,5.667V-6.293a.871.871,0,0,0,.32.68,1.1,1.1,0,0,0,.747.28h8.533a1.032,1.032,0,0,1,.76.307,1.032,1.032,0,0,1,.307.76v3.2a1.032,1.032,0,0,1-.307.76,1.032,1.032,0,0,1-.76.307h-25.6a1.032,1.032,0,0,1-.76-.307,1.032,1.032,0,0,1-.307-.76v-3.2a1.032,1.032,0,0,1,.307-.76,1.032,1.032,0,0,1,.76-.307H140.8a1.032,1.032,0,0,0,.76-.307,1.032,1.032,0,0,0,.307-.76V-46.933a1.032,1.032,0,0,0-.307-.76A1.032,1.032,0,0,0,140.8-48h-8.533a1.032,1.032,0,0,1-.76-.307,1.032,1.032,0,0,1-.307-.76v-3.2a1.032,1.032,0,0,1,.307-.76,1.032,1.032,0,0,1,.76-.307H147.2a1.032,1.032,0,0,1,.76.307,1.032,1.032,0,0,1,.307.76Zm49.867,22.693a8.339,8.339,0,0,0,.427,2.68,6.458,6.458,0,0,0,1.253,2.213,5.931,5.931,0,0,0,2.013,1.493,6.4,6.4,0,0,0,2.707.547,6.146,6.146,0,0,0,2.707-.573,6.648,6.648,0,0,0,2.013-1.467,6.254,6.254,0,0,0,1.253-1.987,5.784,5.784,0,0,0,.427-2.107,1.032,1.032,0,0,1,.307-.76,1.032,1.032,0,0,1,.76-.307h4.267a1.032,1.032,0,0,1,.76.307,1.032,1.032,0,0,1,.307.76,10.716,10.716,0,0,1-.933,4.36,11.929,11.929,0,0,1-2.613,3.76A12.751,12.751,0,0,1,209.747.08a13.387,13.387,0,0,1-5.213.987A14.464,14.464,0,0,1,198.88.053a10.917,10.917,0,0,1-3.987-2.8,11.671,11.671,0,0,1-2.373-4.227,17.162,17.162,0,0,1-.787-5.293V-30.933a1.032,1.032,0,0,0-.307-.76,1.032,1.032,0,0,0-.76-.307h-8.533a1.032,1.032,0,0,1-.76-.307,1.032,1.032,0,0,1-.307-.76v-3.2a1.032,1.032,0,0,1,.307-.76,1.032,1.032,0,0,1,.76-.307h6.4a3.033,3.033,0,0,0,1.24-.253,3.315,3.315,0,0,0,1.013-.693,3.315,3.315,0,0,0,.693-1.013,3.033,3.033,0,0,0,.253-1.24v-9.6a1.032,1.032,0,0,1,.307-.76,1.032,1.032,0,0,1,.76-.307h4.267a1.032,1.032,0,0,1,.76.307,1.032,1.032,0,0,1,.307.76V-38.4a1.032,1.032,0,0,0,.307.76,1.032,1.032,0,0,0,.76.307H212a1.032,1.032,0,0,1,.76.307,1.032,1.032,0,0,1,.307.76v3.2a1.032,1.032,0,0,1-.307.76A1.032,1.032,0,0,1,212-32H199.2a1.032,1.032,0,0,0-.76.307,1.032,1.032,0,0,0-.307.76Z" transform="translate(42 198)" fill="#FFF"/>
    </g>
  </svg>
  