<svg xmlns="http://www.w3.org/2000/svg" width="716.942" height="332.657"><path data-name="Caminho 4" d="m140.302 41.376-2.61 58.242-75.416 6.182-1.369 39.423 65.8-1.1-2.751 39.699-64.148 1.1-1.1 48.077 72.8 1.1-2.473 41.071-102.744 3.706q-4.258-54.12-4.258-91.483 0-7.143.962-20.742 2.2-36.264 2.2-123.764Zm71.974 249.588q-17.308 1.511-46.429 4.533-5.082-62.088-5.082-96.566 0-36.813-3.709-134.478l49.863-1.374Zm172.12-142.307q-1.786 83.925-58.792 109.34-17.028 7.693-30.628 7.693-35.577 0-53.984-25.687-16.074-22.528-16.074-59.341 0-23.626 7.555-50.275 9.615-33.791 28.571-58.1 24.038-30.907 53.571-30.907 21.841 0 38.736 17.857 13.874 14.423 21.978 37.912l-32.28 17.17q-6.868-33.791-26.786-33.791-16.484 0-30.082 25a143.58 143.58 0 0 0-14.56 39.423 142.087 142.087 0 0 0-3.709 30.082q0 44.231 28.159 44.231 27.473 0 40.8-33.242l-39.423-.824 1.1-39.7Zm157.555 147.39q-22.39 2.747-36.813 5.082-4.262-72.665-4.262-115.659v-2.2l-53.98 7.832 1.923 75.687q-14.56 1.236-43.544 3.984-4.533-55.22-4.533-90.385 0-28.434-3.709-125.962l46.429-1.511 2.335 101.1 55.082-2.06q-.275-27.885-2.747-128.022l39.286-1.374Zm144.918-252.61-3.3 51.786-35.989 1.923-8.514 181.73-41.346-3.159 1.923-175.824-46.7 2.61-1.1-56.044Z" stroke="#373535" stroke-width="30"/><path data-name="Caminho 3" d="m154.368 55.442-2.61 58.242-75.416 6.182-1.369 39.423 65.8-1.1-2.751 39.699-64.148 1.1-1.1 48.077 72.8 1.1-2.473 41.071-102.744 3.706q-4.258-54.12-4.258-91.483 0-7.143.962-20.742 2.2-36.264 2.2-123.764Zm71.974 249.588q-17.308 1.511-46.429 4.533-5.082-62.088-5.082-96.566 0-36.813-3.709-134.478l49.863-1.374Zm172.12-142.307q-1.786 83.925-58.792 109.34-17.028 7.693-30.628 7.693-35.577 0-53.984-25.687-16.074-22.528-16.074-59.341 0-23.626 7.555-50.275 9.615-33.791 28.571-58.1 24.038-30.907 53.571-30.907 21.841 0 38.736 17.857 13.874 14.423 21.978 37.912l-32.28 17.17q-6.868-33.791-26.786-33.791-16.484 0-30.082 25a143.58 143.58 0 0 0-14.56 39.423 142.087 142.087 0 0 0-3.709 30.082q0 44.231 28.159 44.231 27.473 0 40.8-33.242l-39.423-.824 1.1-39.7Zm157.555 147.39q-22.39 2.747-36.813 5.082-4.262-72.665-4.262-115.659v-2.2l-53.98 7.832 1.923 75.687q-14.56 1.236-43.544 3.984-4.533-55.22-4.533-90.385 0-28.434-3.709-125.962l46.429-1.511 2.335 101.1 55.082-2.06q-.275-27.885-2.747-128.022l39.286-1.374Zm144.918-252.61-3.3 51.786-35.989 1.923-8.514 181.73-41.346-3.159 1.923-175.824-46.7 2.61-1.1-56.044Z" stroke="#373535" stroke-width="30" opacity=".65"/><path data-name="Caminho 2" d="m133.269 34.343-2.61 58.242-75.416 6.182-1.369 39.423 65.8-1.1-2.751 39.699-64.148 1.1-1.1 48.077 72.8 1.1-2.473 41.071-102.744 3.706Q15 217.723 15 180.36q0-7.143.962-20.742 2.2-36.264 2.2-123.764Zm71.974 249.588q-17.308 1.511-46.429 4.533-5.082-62.088-5.082-96.566 0-36.813-3.709-134.478l49.863-1.374Zm172.12-142.307q-1.786 83.925-58.792 109.34-17.028 7.693-30.628 7.693-35.577 0-53.984-25.687-16.074-22.528-16.074-59.341 0-23.626 7.555-50.275 9.615-33.791 28.571-58.1 24.038-30.907 53.571-30.907 21.841 0 38.736 17.857 13.874 14.423 21.978 37.912l-32.28 17.17q-6.868-33.791-26.786-33.791-16.484 0-30.082 25a143.58 143.58 0 0 0-14.56 39.423A142.087 142.087 0 0 0 260.879 168q0 44.231 28.159 44.231 27.473 0 40.8-33.242l-39.423-.824 1.1-39.7Zm157.555 147.39q-22.39 2.747-36.813 5.082-4.262-72.665-4.262-115.659v-2.2l-53.98 7.832 1.923 75.687q-14.56 1.236-43.544 3.984-4.533-55.22-4.533-90.385 0-28.434-3.709-125.962l46.429-1.511 2.335 101.1 55.082-2.06q-.275-27.885-2.747-128.022l39.286-1.374Zm144.918-252.61-3.3 51.786-35.989 1.923-8.514 181.73-41.346-3.159L592.61 92.86l-46.7 2.61-1.1-56.044Z" stroke="#000" stroke-width="30"/><path data-name="Caminho 1" d="m119.203 20.277-2.61 58.242-75.416 6.182-1.369 39.423 65.8-1.1-2.751 39.699-64.148 1.1-1.1 48.077 72.8 1.1-2.473 41.071-102.744 3.706Q.934 203.657.934 166.294q0-7.143.962-20.742 2.2-36.264 2.2-123.764Zm71.974 249.588q-17.308 1.511-46.429 4.533-5.082-62.088-5.082-96.566 0-36.813-3.709-134.478l49.863-1.374Zm172.12-142.307q-1.786 83.925-58.792 109.34-17.028 7.693-30.628 7.693-35.577 0-53.984-25.687-16.074-22.528-16.074-59.341 0-23.626 7.555-50.275 9.615-33.791 28.571-58.1 24.038-30.907 53.571-30.907 21.841 0 38.736 17.857 13.874 14.423 21.978 37.912l-32.28 17.17q-6.868-33.791-26.786-33.791-16.484 0-30.082 25a143.58 143.58 0 0 0-14.56 39.423 142.087 142.087 0 0 0-3.709 30.082q0 44.231 28.159 44.231 27.473 0 40.8-33.242l-39.423-.824 1.1-39.7Zm157.555 147.39q-22.39 2.747-36.813 5.082-4.262-72.665-4.262-115.659v-2.2l-53.98 7.832 1.923 75.687q-14.56 1.236-43.544 3.984-4.533-55.22-4.533-90.385 0-28.434-3.709-125.962l46.429-1.511 2.335 101.1 55.082-2.06q-.275-27.885-2.747-128.022l39.286-1.374ZM665.77 22.338l-3.3 51.786-35.989 1.923-8.514 181.73-41.346-3.159 1.923-175.824-46.7 2.61-1.1-56.044Z" fill="#fff"/></svg>