<svg xmlns="http://www.w3.org/2000/svg" width="716.944" height="332.656"><g data-name="ic logo"><path data-name="Caminho 4" d="m140.302 41.375-2.61 58.242-75.416 6.182-1.369 39.423 65.8-1.1-2.751 39.7-64.148 1.1-1.1 48.077 72.8 1.1-2.473 41.071-102.744 3.706q-4.257-54.12-4.258-91.483 0-7.143.962-20.742 2.2-36.264 2.2-123.764Zm71.974 249.586q-17.307 1.51-46.429 4.533-5.082-62.088-5.082-96.566 0-36.813-3.709-134.478l49.863-1.374Zm172.12-142.307q-1.786 83.925-58.792 109.34-17.028 7.692-30.628 7.693-35.577 0-53.984-25.687-16.074-22.529-16.074-59.341 0-23.627 7.555-50.275 9.615-33.792 28.571-58.1 24.038-30.908 53.571-30.907 21.842 0 38.736 17.857 13.875 14.423 21.978 37.912l-32.28 17.17q-6.868-33.792-26.786-33.791-16.484 0-30.082 25a143.606 143.606 0 0 0-14.56 39.423 142.09 142.09 0 0 0-3.709 30.082q0 44.23 28.159 44.231 27.474 0 40.8-33.242l-39.423-.824 1.1-39.7Zm157.555 147.39q-22.389 2.746-36.813 5.082-4.262-72.666-4.262-115.659v-2.2l-53.98 7.832 1.923 75.687q-14.559 1.236-43.544 3.984-4.533-55.221-4.533-90.385 0-28.434-3.709-125.962l46.429-1.511 2.335 101.1 55.082-2.06q-.275-27.885-2.747-128.022l39.286-1.374ZM686.869 43.436l-3.3 51.786-35.989 1.923-8.514 181.73-41.346-3.159 1.923-175.824-46.7 2.61-1.1-56.044Z" stroke="#373535" stroke-width="30"/><path data-name="Caminho 3" d="m1784.229 111.78-2.61 58.242-75.419 6.178-1.369 39.423 65.8-1.1-2.751 39.7-64.148 1.1-1.1 48.077 72.8 1.1-2.473 41.071-102.744 3.706q-4.257-54.12-4.258-91.483 0-7.143.962-20.742 2.2-36.264 2.2-123.764Zm71.971 249.588q-17.307 1.51-46.429 4.533-5.082-62.088-5.082-96.566 0-36.813-3.709-134.478l49.863-1.374Zm172.12-142.307q-1.787 83.925-58.792 109.34-17.028 7.692-30.628 7.693-35.577 0-53.984-25.687-16.074-22.529-16.074-59.341 0-23.626 7.555-50.275 9.615-33.792 28.571-58.1 24.038-30.907 53.571-30.907 21.842 0 38.736 17.857 13.874 14.422 21.978 37.912l-32.28 17.17q-6.868-33.792-26.786-33.791-16.483 0-30.082 25a143.61 143.61 0 0 0-14.56 39.423 142.1 142.1 0 0 0-3.709 30.082q0 44.231 28.159 44.231 27.474 0 40.8-33.242l-39.423-.824 1.1-39.7Zm157.555 147.39q-22.389 2.747-36.813 5.082-4.261-72.666-4.262-115.659v-2.2l-53.98 7.832 1.923 75.687q-14.559 1.236-43.544 3.984-4.533-55.221-4.533-90.385 0-28.434-3.709-125.962l46.429-1.511 2.335 101.1 55.082-2.06q-.274-27.885-2.747-128.022l39.286-1.374Zm144.925-252.61-3.3 51.786-35.989 1.923-8.514 181.73-41.346-3.159 1.919-175.821-46.7 2.61-1.1-56.044Z" stroke="#373535" stroke-width="30" opacity=".65" style="isolation:isolate" transform="translate(-1629.861 -56.339)"/><path data-name="Caminho 2" d="m133.269 34.342-2.61 58.242-75.42 6.177-1.369 39.423 65.8-1.1-2.751 39.7-64.148 1.1-1.1 48.077 72.8 1.1-2.473 41.071-102.744 3.706q-4.257-54.12-4.258-91.483 0-7.143.962-20.742 2.2-36.264 2.2-123.764Zm71.97 249.588q-17.307 1.51-46.429 4.533-5.082-62.088-5.082-96.566 0-36.813-3.709-134.478l49.863-1.374Zm172.12-142.307q-1.787 83.925-58.792 109.34-17.028 7.692-30.628 7.693-35.577 0-53.984-25.687-16.074-22.529-16.074-59.341 0-23.626 7.555-50.275 9.615-33.792 28.571-58.1 24.038-30.908 53.571-30.907 21.842 0 38.736 17.857 13.874 14.422 21.978 37.912l-32.28 17.17q-6.868-33.792-26.786-33.791-16.483 0-30.082 25a143.611 143.611 0 0 0-14.56 39.423 142.1 142.1 0 0 0-3.709 30.082q0 44.23 28.159 44.231 27.474 0 40.8-33.242l-39.423-.824 1.1-39.7Zm157.555 147.39q-22.389 2.747-36.813 5.082-4.262-72.666-4.262-115.659v-2.2l-53.98 7.832 1.923 75.687q-14.559 1.236-43.544 3.984-4.533-55.221-4.533-90.385 0-28.434-3.709-125.962l46.429-1.511 2.335 101.1 55.082-2.06q-.275-27.885-2.747-128.022l39.286-1.374Zm144.925-252.61-3.3 51.786-35.989 1.923-8.514 181.73-41.346-3.159 1.923-175.824-46.7 2.61-1.1-56.044Z" stroke="#000" stroke-width="30"/><path data-name="Caminho 1" d="m119.203 20.276-2.61 58.242L41.177 84.7l-1.369 39.423 65.8-1.1-2.751 39.7-64.148 1.1-1.1 48.077 72.8 1.1-2.473 41.071-102.744 3.706Q.939 203.661.939 166.293q0-7.143.962-20.742 2.2-36.264 2.2-123.764Zm71.974 249.585q-17.307 1.51-46.429 4.533-5.082-62.088-5.082-96.566 0-36.813-3.709-134.478l49.863-1.374Zm172.12-142.3q-1.786 83.925-58.792 109.34-17.028 7.692-30.628 7.693-35.577 0-53.984-25.687-16.074-22.529-16.074-59.341 0-23.627 7.555-50.275 9.615-33.792 28.571-58.1 24.038-30.908 53.571-30.907 21.842 0 38.736 17.857 13.875 14.423 21.978 37.912l-32.28 17.17q-6.868-33.792-26.786-33.791-16.484 0-30.082 25a143.606 143.606 0 0 0-14.56 39.423 142.09 142.09 0 0 0-3.709 30.082q0 44.23 28.159 44.231 27.474 0 40.8-33.242l-39.423-.824 1.1-39.7Zm157.555 147.39q-22.389 2.746-36.813 5.082-4.261-72.666-4.262-115.659v-2.2l-53.98 7.832 1.923 75.687q-14.559 1.236-43.544 3.984-4.533-55.221-4.533-90.385 0-28.434-3.709-125.962l46.429-1.511 2.335 101.1 55.082-2.06q-.275-27.885-2.747-128.022l39.286-1.376ZM665.77 22.341l-3.3 51.786-35.989 1.923-8.514 181.73-41.346-3.159 1.923-175.824-46.7 2.61-1.105-56.046Z" fill="#fff"/></g></svg>