<svg xmlns="http://www.w3.org/2000/svg" width="450" height="140.933"><g fill="#fff"><path d="M30.492 85.757a1.872 1.872 0 0 0 1.908 1.906h38.112a1.872 1.872 0 0 0 1.906-1.906V60.983a1.872 1.872 0 0 1 1.906-1.906h7.623a1.872 1.872 0 0 1 1.906 1.906v34.3a1.872 1.872 0 0 1-1.906 1.906H1.906A1.872 1.872 0 0 1 0 95.286v-5.717a1.872 1.872 0 0 1 1.906-1.906h15.245a1.872 1.872 0 0 0 1.906-1.906V13.34a1.844 1.844 0 0 0-.548-1.358 1.844 1.844 0 0 0-1.358-.548H1.906a1.844 1.844 0 0 1-1.358-.548A1.844 1.844 0 0 1 0 9.529V3.812a1.844 1.844 0 0 1 .548-1.358 1.844 1.844 0 0 1 1.358-.548h80.04a1.844 1.844 0 0 1 1.358.548 1.844 1.844 0 0 1 .548 1.358v34.3a1.844 1.844 0 0 1-.548 1.358 1.844 1.844 0 0 1-1.358.548h-7.623a1.844 1.844 0 0 1-1.358-.548 1.844 1.844 0 0 1-.548-1.358V13.34a1.844 1.844 0 0 0-.548-1.358 1.844 1.844 0 0 0-1.358-.548H32.4a1.844 1.844 0 0 0-1.358.548 1.844 1.844 0 0 0-.548 1.358v29.539a1.844 1.844 0 0 0 .548 1.358 1.844 1.844 0 0 0 1.358.548h19.054a1.844 1.844 0 0 1 1.358.548 1.844 1.844 0 0 1 .548 1.357v5.717a1.844 1.844 0 0 1-.548 1.358 1.844 1.844 0 0 1-1.358.548H32.4a1.872 1.872 0 0 0-1.906 1.906Zm72.417 11.434a1.872 1.872 0 0 1-1.906-1.906v-5.716a1.872 1.872 0 0 1 1.906-1.906h15.246a1.872 1.872 0 0 0 1.906-1.906V41.926a1.844 1.844 0 0 0-.548-1.358 1.844 1.844 0 0 0-1.358-.548h-15.246a1.844 1.844 0 0 1-1.358-.548 1.844 1.844 0 0 1-.548-1.358V32.4a1.844 1.844 0 0 1 .548-1.358 1.844 1.844 0 0 1 1.358-.548h26.68a1.844 1.844 0 0 1 1.358.548 1.844 1.844 0 0 1 .548 1.358v53.36a1.872 1.872 0 0 0 1.906 1.906h15.246a1.872 1.872 0 0 1 1.906 1.906v5.717a1.872 1.872 0 0 1-1.906 1.906Zm11.434-87.663a9.1 9.1 0 0 1 .762-3.692 9.791 9.791 0 0 1 2.049-3.025 9.79 9.79 0 0 1 3.025-2.049A9.1 9.1 0 0 1 123.871 0a9.1 9.1 0 0 1 3.692.762 9.79 9.79 0 0 1 3.025 2.049 9.791 9.791 0 0 1 2.049 3.025 9.1 9.1 0 0 1 .762 3.692 9.1 9.1 0 0 1-.762 3.692 9.791 9.791 0 0 1-2.049 3.025 9.79 9.79 0 0 1-3.025 2.049 9.1 9.1 0 0 1-3.692.762 9.1 9.1 0 0 1-3.692-.762 9.79 9.79 0 0 1-3.025-2.049 9.79 9.79 0 0 1-2.049-3.025 9.1 9.1 0 0 1-.762-3.691Zm73.7 29.015a19.081 19.081 0 0 0-6.337 1.048 16.077 16.077 0 0 0-5.265 3 14.385 14.385 0 0 0-3.6 4.74 14.442 14.442 0 0 0-1.334 6.313 14.789 14.789 0 0 0 1.342 6.456 13.639 13.639 0 0 0 3.6 4.669 15.77 15.77 0 0 0 5.265 2.859 20.35 20.35 0 0 0 6.337.977 20.957 20.957 0 0 0 6.432-.977 16.511 16.511 0 0 0 5.384-2.859 13.511 13.511 0 0 0 3.688-4.669 14.57 14.57 0 0 0 1.358-6.456 14.117 14.117 0 0 0-1.358-6.265 14.233 14.233 0 0 0-3.692-4.74 17.185 17.185 0 0 0-5.384-3.025 19.25 19.25 0 0 0-6.432-1.071Zm-8.909 58.649a10.37 10.37 0 0 0-3.883.572 8.3 8.3 0 0 0-1.882 1 15.685 15.685 0 0 0-3.383 4.24 10.717 10.717 0 0 0-1.334 5.241 9.329 9.329 0 0 0 1.691 5.741 12.031 12.031 0 0 0 4.5 3.621 22.429 22.429 0 0 0 6.408 1.906 49.14 49.14 0 0 0 7.409.548 50.615 50.615 0 0 0 9.934-.929 32.136 32.136 0 0 0 8.075-2.644 16.087 16.087 0 0 0 5.431-4.193 8.642 8.642 0 0 0 2-5.574 9.525 9.525 0 0 0-.667-3.478 8.214 8.214 0 0 0-2.1-3.049 10.784 10.784 0 0 0-3.716-2.168 16.034 16.034 0 0 0-5.479-.834Zm-19.053-43.546a23.454 23.454 0 0 1 2.049-9.743 24.134 24.134 0 0 1 5.765-7.956 27.551 27.551 0 0 1 8.885-5.384 31.7 31.7 0 0 1 11.41-1.977 33.057 33.057 0 0 1 5.717.476A33.6 33.6 0 0 1 199.1 30.4q.286.1.643.191a3.255 3.255 0 0 0 .834.1 3.847 3.847 0 0 0 1.215-.214 3.463 3.463 0 0 0 1.31-.881l11.911-11.863a1.882 1.882 0 0 1 1.382-.572 1.677 1.677 0 0 1 1.286.572l4.719 4.707a1.678 1.678 0 0 1 .572 1.286 1.882 1.882 0 0 1-.572 1.382L212.25 35.3a4.783 4.783 0 0 0-.953 1.263 2.6 2.6 0 0 0-.286 1.12 2.272 2.272 0 0 0 .238 1.072 4.255 4.255 0 0 0 .476.738 22.65 22.65 0 0 1 3.406 6.6 24.311 24.311 0 0 1 1.169 7.553 23.931 23.931 0 0 1-2 9.743 23.86 23.86 0 0 1-5.67 7.956 26.622 26.622 0 0 1-8.862 5.36 32.669 32.669 0 0 1-11.577 1.953 33.213 33.213 0 0 1-8.218-.977 30.462 30.462 0 0 1-7.075-2.739 3.5 3.5 0 0 0-1.572-.476 2.964 2.964 0 0 0-1.858.858 8.146 8.146 0 0 0-1.787 2.192 5.974 5.974 0 0 0-.691 2.954 6.377 6.377 0 0 0 .786 3.287 5.919 5.919 0 0 0 2.192 2.144 10.437 10.437 0 0 0 3.264 1.167 21.192 21.192 0 0 0 4 .357h23.679a31.09 31.09 0 0 1 10.863 1.691 21.806 21.806 0 0 1 7.432 4.431 17.291 17.291 0 0 1 4.288 6.194 18.655 18.655 0 0 1 1.382 6.98 17.892 17.892 0 0 1-2.787 9.934 22.616 22.616 0 0 1-7.837 7.242 41.055 41.055 0 0 1-12.052 4.429 74.023 74.023 0 0 1-15.484 1.5 46.238 46.238 0 0 1-9.648-.905 32.69 32.69 0 0 1-7.408-2.454 21.206 21.206 0 0 1-5.36-3.6 20.471 20.471 0 0 1-3.549-4.359 17.255 17.255 0 0 1-1.981-4.708 19.5 19.5 0 0 1-.6-4.693 22.764 22.764 0 0 1 .214-3.025 18.979 18.979 0 0 1 .738-3.24 19.884 19.884 0 0 1 1.382-3.264 19.347 19.347 0 0 1 2.1-3.144 2.635 2.635 0 0 0 .762-1.572q0-.715-1.1-1.477a13.623 13.623 0 0 1-4.5-5.1 13.984 13.984 0 0 1-1.5-6.337 14.248 14.248 0 0 1 .5-3.811 14.473 14.473 0 0 1 1.406-3.383 18.212 18.212 0 0 1 2.1-2.93 22.506 22.506 0 0 1 2.573-2.5 6.929 6.929 0 0 0 .905-.881 1.366 1.366 0 0 0 .286-.881 3.879 3.879 0 0 0-.619-1.715 23.158 23.158 0 0 1-3.336-12.201Zm99.1-17.485a2.669 2.669 0 0 0 .357 1.572 1.068 1.068 0 0 0 .881.476 1.691 1.691 0 0 0 .762-.191 2.135 2.135 0 0 0 .715-.619 21.855 21.855 0 0 1 8.242-6.527 25.95 25.95 0 0 1 11.006-2.287 31.285 31.285 0 0 1 5.86.572 24.78 24.78 0 0 1 5.86 1.906 23.521 23.521 0 0 1 5.384 3.5 21.683 21.683 0 0 1 4.431 5.336 28.248 28.248 0 0 1 3.021 7.458 38.982 38.982 0 0 1 1.12 9.814v28.586a1.785 1.785 0 0 0 .572 1.382 1.912 1.912 0 0 0 1.334.524h15.246a1.872 1.872 0 0 1 1.906 1.906v5.717a1.872 1.872 0 0 1-1.906 1.906h-26.68a1.872 1.872 0 0 1-1.906-1.906V56.219a22.87 22.87 0 0 0-1.072-7.17 15.639 15.639 0 0 0-3.121-5.574 14.231 14.231 0 0 0-4.955-3.6 15.961 15.961 0 0 0-6.527-1.286 18.169 18.169 0 0 0-8.242 1.882 19.678 19.678 0 0 0-6.5 5.241 24.707 24.707 0 0 0-4.264 8 32.3 32.3 0 0 0-1.525 10.124v22.112a1.557 1.557 0 0 0 .572 1.215 1.963 1.963 0 0 0 1.334.5h15.246a1.872 1.872 0 0 1 1.906 1.906v5.717a1.872 1.872 0 0 1-1.906 1.906h-45.74a1.872 1.872 0 0 1-1.906-1.906v-5.717a1.872 1.872 0 0 1 1.906-1.906h15.246a1.872 1.872 0 0 0 1.906-1.906V13.34a1.844 1.844 0 0 0-.548-1.358 1.844 1.844 0 0 0-1.358-.548h-15.246a1.844 1.844 0 0 1-1.358-.548 1.844 1.844 0 0 1-.548-1.358V3.811a1.844 1.844 0 0 1 .548-1.358 1.844 1.844 0 0 1 1.358-.548h26.68a1.844 1.844 0 0 1 1.358.548 1.844 1.844 0 0 1 .548 1.358Zm89.089 40.544a14.9 14.9 0 0 0 .762 4.788 11.537 11.537 0 0 0 2.239 3.954 10.6 10.6 0 0 0 3.6 2.668 11.435 11.435 0 0 0 4.836.977 10.98 10.98 0 0 0 4.836-1.024 11.876 11.876 0 0 0 3.6-2.62 11.172 11.172 0 0 0 2.239-3.549 10.335 10.335 0 0 0 .762-3.764 1.872 1.872 0 0 1 1.906-1.906h7.623a1.872 1.872 0 0 1 1.906 1.906 19.147 19.147 0 0 1-1.667 7.79 21.312 21.312 0 0 1-4.669 6.718 22.781 22.781 0 0 1-7.218 4.693A23.917 23.917 0 0 1 359.7 99.1a25.841 25.841 0 0 1-10.1-1.81 19.505 19.505 0 0 1-7.123-5 20.851 20.851 0 0 1-4.24-7.551 30.661 30.661 0 0 1-1.405-9.457v-33.35a1.844 1.844 0 0 0-.548-1.358 1.844 1.844 0 0 0-1.358-.548h-15.241a1.844 1.844 0 0 1-1.358-.548 1.844 1.844 0 0 1-.548-1.358V32.4a1.844 1.844 0 0 1 .548-1.358 1.844 1.844 0 0 1 1.358-.548h11.434a5.419 5.419 0 0 0 2.215-.453 5.923 5.923 0 0 0 1.81-1.239 5.922 5.922 0 0 0 1.239-1.81 5.419 5.419 0 0 0 .453-2.215V7.623a1.844 1.844 0 0 1 .548-1.358 1.844 1.844 0 0 1 1.358-.548h7.623a1.844 1.844 0 0 1 1.358.548 1.844 1.844 0 0 1 .548 1.358v20.963a1.844 1.844 0 0 0 .548 1.358 1.844 1.844 0 0 0 1.358.548h22.869a1.844 1.844 0 0 1 1.358.548 1.844 1.844 0 0 1 .547 1.36v5.717a1.844 1.844 0 0 1-.548 1.358 1.844 1.844 0 0 1-1.358.548h-22.869a1.844 1.844 0 0 0-1.358.548 1.844 1.844 0 0 0-.548 1.358Z"/><path data-name="Caminho 95" d="M416.298 2.135h31.7a2 2 0 0 1 2 2v7.011a2 2 0 0 1-2 2h-31.7a2 2 0 0 1-2-2V4.135a2 2 0 0 1 2-2Z"/><path data-name="Caminho 94" d="M416.298 87.274h31.7a2 2 0 0 1 2 2v7.011a2 2 0 0 1-2 2h-31.7a2 2 0 0 1-2-2v-7.011a2 2 0 0 1 2-2Z"/><path data-name="Caminho 93" d="M416.298 44.983h31.7a2 2 0 0 1 2 2v7.011a2 2 0 0 1-2 2h-31.7a2 2 0 0 1-2-2v-7.011a2 2 0 0 1 2-2Z"/><path data-name="Caminho 92" d="M258.761 129.919h189.046a2 2 0 0 1 2 2v7.011a2 2 0 0 1-2 2H258.761a2 2 0 0 1-2-2v-7.011a2 2 0 0 1 2-2Z"/><path data-name="Caminho 91" d="M2.11 129.919h122.487a2 2 0 0 1 2 2v7.011a2 2 0 0 1-2 2H2.11a2 2 0 0 1-2-2v-7.011a2 2 0 0 1 2-2Z"/></g></svg>